<?xml version="1.0" encoding="UTF-8" standalone="no"?>
<svg width="600px" height="601px" viewBox="0 0 600 601" version="1.1" xmlns="http://www.w3.org/2000/svg" xmlns:xlink="http://www.w3.org/1999/xlink" xmlns:sketch="http://www.bohemiancoding.com/sketch/ns">
    <!-- Generator: Sketch 3.3.3 (12081) - http://www.bohemiancoding.com/sketch -->
    <title>Rectangle 1 + Group</title>
    <desc>Created with Sketch.</desc>
    <defs></defs>
    <g id="Page-1" stroke="none" stroke-width="1" fill="none" fill-rule="evenodd" sketch:type="MSPage">
        <g id="Desktop-HD" sketch:type="MSArtboardGroup" transform="translate(-225.000000, -84.000000)">
            <g id="Rectangle-1-+-Group" sketch:type="MSLayerGroup" transform="translate(225.000000, 84.000000)">
                <rect id="Rectangle-1" fill="#F3CF11" sketch:type="MSShapeGroup" x="0" y="0.279421907" width="600" height="600"></rect>
                <g id="Group" transform="translate(113.000000, 22.000000)" sketch:type="MSShapeGroup">
                    <path d="M372.584797,292.635512 C369.890762,294.661806 377.177413,203.101795 375.517092,158.332125 C375.049951,123.371519 353.809101,88.0079038 313.24662,57.1973584 C271.71984,27.046624 247.829981,1.45270868 202.594213,1.3814791 C197.035422,1.3008772 191.469126,1.3008772 185.91221,1.3814791 C140.667062,1.45270868 116.780955,27.046624 75.2522987,57.1973584 C34.6935697,88.0079038 13.450844,123.371519 12.987455,158.332125 C11.3233821,203.101795 19.2160031,296.586879 15.9178743,292.635512 C138.595882,330.351578 249.903037,330.351578 372.584797,292.635512" id="Fill-3" fill="#000000"></path>
                    <path d="M0.43467943,295.657146 C0.43467943,274.929336 17.0266309,258.121028 37.4982924,258.121028 C57.9624497,258.121028 74.5544012,274.929336 74.5544012,295.657146 C74.5544012,316.390579 57.9624497,333.197013 37.4982924,333.197013 C17.0266309,333.197013 0.43467943,316.390579 0.43467943,295.657146" id="Fill-4" fill="#CEA590"></path>
                    <path d="M256.075303,577.525743 L135.802416,577.638211 L135.70486,466.049565 L255.977748,465.935223 L256.075303,577.525743" id="Fill-5" fill="#CEA590"></path>
                    <path d="M135.70486,466.049565 L135.753638,520.64142 C153.780782,526.76529 173.441982,530.163691 194.043092,530.144947 L194.165036,530.144947 L194.294485,530.144947 C216.218224,530.124328 237.078232,526.270432 256.028401,519.342417 L255.977748,465.935223 L135.70486,466.049565" id="Fill-6" fill="#815D46"></path>
                    <path d="M37.239395,109.174338 L37.4701514,371.25798 C37.5358138,445.139932 107.875257,504.969037 194.5834,504.890309 C281.295295,504.811582 351.529678,444.858763 351.465892,370.978685 L351.235135,108.891294 L37.239395,109.174338" id="Fill-7" fill="#CEA590"></path>
                    <path d="M313.955774,295.657146 C313.955774,274.929336 330.547726,258.121028 351.013759,258.121028 C371.479792,258.121028 388.07362,274.929336 388.07362,295.657146 C388.07362,316.390579 371.479792,333.197013 351.013759,333.197013 C330.547726,333.197013 313.955774,316.390579 313.955774,295.657146" id="Fill-8" fill="#CEA590"></path>
                    <path d="M82.1037016,244.338103 C78.9068805,244.338103 76.1471835,241.940665 75.7738458,238.688472 C75.3761193,235.192599 77.8900513,232.034129 81.3870433,231.634868 L151.456333,223.640284 C154.953325,223.239149 158.114501,225.75093 158.515979,229.248677 C158.913706,232.74455 156.40165,235.90302 152.902782,236.302281 L82.8353684,244.298739 C82.5896034,244.324982 82.3457144,244.338103 82.1037016,244.338103" id="Fill-9" fill="#000000"></path>
                    <path d="M307.624043,244.338103 C307.38203,244.338103 307.138141,244.324982 306.8905,244.298739 L236.823086,236.302281 C233.322342,235.90302 230.812162,232.74455 231.208013,229.248677 C231.607615,225.75093 234.751906,223.241024 238.269535,223.640284 L308.340701,231.634868 C311.837693,232.034129 314.351625,235.192599 313.952022,238.688472 C313.580561,241.93879 310.820864,244.338103 307.624043,244.338103" id="Fill-10" fill="#000000"></path>
                    <path d="M35.0387664,247.620287 L35.0387664,164.367896 C35.0387664,134.339001 59.063702,109.999102 88.7093394,109.999102 L299.813969,109.999102 C329.45773,109.999102 353.477037,134.339001 353.477037,164.367896 L353.477037,247.620287 L362.958688,247.620287 L362.958688,128.586275 C362.958688,96.7728919 337.502312,70.9840325 306.089418,70.9840325 L82.4245093,70.9840325 C51.0172434,70.9840325 25.5589913,96.7728919 25.5589913,128.586275 L25.5589913,247.620287 L35.0387664,247.620287" id="Fill-11" fill="#000000"></path>
                    <path d="M307.517107,106.019617 C307.517107,114.769609 194.25884,121.856953 194.25884,121.856953 C194.25884,121.856953 80.9986971,114.769609 80.9986971,106.019617 C80.9986971,97.2677501 131.705082,90.1804062 194.25884,90.1804062 C256.810722,90.1804062 307.517107,97.2677501 307.517107,106.019617" id="Fill-12" fill="#000000"></path>
                    <path d="M227.917388,298.337628 C227.917388,291.672038 233.247299,286.279208 239.824796,286.279208 C246.404169,286.279208 251.735956,291.672038 251.735956,298.337628 C251.735956,305.003218 246.404169,310.397921 239.824796,310.397921 C233.247299,310.397921 227.917388,305.003218 227.917388,298.337628" id="Fill-13" fill="#000000"></path>
                    <path d="M88.5930232,299.784713 C88.5930232,293.119123 93.9266864,287.724419 100.500431,287.724419 C107.079804,287.724419 112.411591,293.119123 112.411591,299.784713 C112.411591,306.448428 107.079804,311.845007 100.500431,311.845007 C93.9266864,311.845007 88.5930232,306.448428 88.5930232,299.784713" id="Fill-14" fill="#000000"></path>
                    <path d="M189.596809,234.182263 L202.3522,234.182263 L202.3522,358.266078 L189.596809,358.266078 L189.596809,234.182263 Z" id="Fill-15" fill="#A0887C"></path>
                    <path d="M195.973567,364.637378 C174.809636,364.637378 157.589201,350.395209 157.589201,332.889601 C157.589201,329.371234 160.446454,326.518302 163.967835,326.518302 C167.489216,326.518302 170.344592,329.371234 170.344592,332.889601 C170.344592,343.367848 181.841141,351.892905 195.973567,351.892905 C210.104116,351.892905 221.600665,343.367848 221.600665,332.889601 C221.600665,329.371234 224.456042,326.518302 227.979299,326.518302 C231.500679,326.518302 234.356056,329.371234 234.356056,332.889601 C234.356056,350.395209 217.137498,364.637378 195.973567,364.637378" id="Fill-16" fill="#000000"></path>
                    <path d="M194.247583,453.022048 C167.39166,453.022048 140.205549,444.354532 140.205549,427.789904 C140.205549,424.271538 143.059049,421.418605 146.582306,421.418605 C150.103687,421.418605 152.959064,424.271538 152.959064,427.789904 C152.959064,431.415116 167.427306,440.277576 194.247583,440.277576 C221.067861,440.277576 235.537979,431.415116 235.537979,427.789904 C235.537979,424.271538 238.393356,421.418605 241.914737,421.418605 C245.436118,421.418605 248.29337,424.271538 248.29337,427.789904 C248.29337,444.354532 221.105383,453.022048 194.247583,453.022048" id="Fill-17" fill="#000000"></path>
                    <path d="M159.832979,437.722683 L225.656725,437.722683 C225.656725,437.722683 189.397946,459.200278 159.832979,437.722683" id="Fill-18" fill="#000000"></path>
                    <path d="M351.645994,320.145128 L351.645994,307.400655 C358.011495,307.400655 363.193197,302.112796 363.193197,295.614033 C363.193197,289.117145 358.011495,283.829286 351.645994,283.829286 L351.645994,271.084813 C365.044877,271.084813 375.948588,282.08791 375.948588,295.614033 C375.948588,309.142031 365.044877,320.145128 351.645994,320.145128" id="Fill-19" fill="#000000"></path>
                    <path d="M36.9054547,320.145128 C23.5046961,320.145128 12.6009849,309.142031 12.6009849,295.614033 C12.6009849,282.08791 23.5046961,271.084813 36.9054547,271.084813 L36.9054547,283.829286 C30.5380776,283.829286 25.3563759,289.117145 25.3563759,295.614033 C25.3563759,302.112796 30.5380776,307.400655 36.9054547,307.400655 L36.9054547,320.145128" id="Fill-20" fill="#000000"></path>
                </g>
            </g>
        </g>
    </g>
</svg>